<svg width="60" height="60" viewBox="0 0 60 60" fill="none" xmlns="http://www.w3.org/2000/svg">
<rect width="60" height="60" rx="10" fill="white"/>
<path d="M34.4317 30.5L43.9786 20.9531C45.3405 19.5912 45.3405 17.3832 43.9786 16.0214C42.6167 14.6595 40.4089 14.6595 39.0469 16.0214L29.5 25.5683L19.9531 16.0214C18.5912 14.6595 16.3832 14.6595 15.0214 16.0214C13.6595 17.3832 13.6595 19.5912 15.0214 20.9531L24.5683 30.5L15.0214 40.0469C13.6595 41.4088 13.6595 43.6168 15.0214 44.9786C15.7023 45.6595 16.5948 46 17.4872 46C18.3796 46 19.2721 45.6595 19.953 44.9786L29.5 35.4317L39.0469 44.9786C39.7279 45.6595 40.6203 46 41.5127 46C42.4052 46 43.2976 45.6595 43.9785 44.9786C45.3404 43.6168 45.3404 41.4088 43.9785 40.0469L34.4317 30.5Z" fill="#526768"/>
</svg>
