<svg width="30" height="30" viewBox="0 0 30 30" fill="none" xmlns="http://www.w3.org/2000/svg">
<path d="M0 2.36842C0 1.74028 0.197544 1.13786 0.549175 0.693694C0.900805 0.249529 1.37772 0 1.875 0H28.125C28.6223 0 29.0992 0.249529 29.4508 0.693694C29.8025 1.13786 30 1.74028 30 2.36842C30 2.99657 29.8025 3.59898 29.4508 4.04315C29.0992 4.48731 28.6223 4.73684 28.125 4.73684H1.875C1.37772 4.73684 0.900805 4.48731 0.549175 4.04315C0.197544 3.59898 0 2.99657 0 2.36842ZM0 15C0 14.3719 0.197544 13.7694 0.549175 13.3253C0.900805 12.8811 1.37772 12.6316 1.875 12.6316H28.125C28.6223 12.6316 29.0992 12.8811 29.4508 13.3253C29.8025 13.7694 30 14.3719 30 15C30 15.6281 29.8025 16.2306 29.4508 16.6747C29.0992 17.1189 28.6223 17.3684 28.125 17.3684H1.875C1.37772 17.3684 0.900805 17.1189 0.549175 16.6747C0.197544 16.2306 0 15.6281 0 15ZM0 27.6316C0 27.0034 0.197544 26.401 0.549175 25.9569C0.900805 25.5127 1.37772 25.2632 1.875 25.2632H28.125C28.6223 25.2632 29.0992 25.5127 29.4508 25.9569C29.8025 26.401 30 27.0034 30 27.6316C30 28.2597 29.8025 28.8621 29.4508 29.3063C29.0992 29.7505 28.6223 30 28.125 30H1.875C1.37772 30 0.900805 29.7505 0.549175 29.3063C0.197544 28.8621 0 28.2597 0 27.6316Z" fill="#526768"/>
</svg>
